<svg width="202" height="214" xmlns="http://www.w3.org/2000/svg" xmlns:xlink="http://www.w3.org/1999/xlink" overflow="hidden"><defs><filter id="fx0" x="-10%" y="-10%" width="120%" height="120%" filterUnits="userSpaceOnUse" primitiveUnits="userSpaceOnUse"><feComponentTransfer color-interpolation-filters="sRGB"><feFuncR type="discrete" tableValues="0 0"/><feFuncG type="discrete" tableValues="0 0"/><feFuncB type="discrete" tableValues="0 0"/><feFuncA type="linear" slope="0.631373" intercept="0"/></feComponentTransfer><feGaussianBlur stdDeviation="2 2"/></filter><filter id="fx1" x="-10%" y="-10%" width="120%" height="120%" filterUnits="userSpaceOnUse" primitiveUnits="userSpaceOnUse"><feComponentTransfer color-interpolation-filters="sRGB"><feFuncR type="discrete" tableValues="0 0"/><feFuncG type="discrete" tableValues="0 0"/><feFuncB type="discrete" tableValues="0 0"/><feFuncA type="linear" slope="0.631373" intercept="0"/></feComponentTransfer><feGaussianBlur stdDeviation="2 2"/></filter><clipPath id="clip2"><rect x="133" y="100" width="202" height="214"/></clipPath><clipPath id="clip3"><rect x="-2" y="-2" width="205" height="205"/></clipPath><clipPath id="clip4"><rect x="0" y="0" width="203" height="203"/></clipPath><clipPath id="clip5"><rect x="58" y="52" width="60" height="70"/></clipPath><clipPath id="clip6"><rect x="0" y="0" width="174" height="198"/></clipPath><linearGradient x1="233.5" y1="105" x2="233.5" y2="294" gradientUnits="userSpaceOnUse" spreadMethod="reflect" id="fill7"><stop offset="0" stop-color="#454545"/><stop offset="0.5"/><stop offset="1"/></linearGradient></defs><g clip-path="url(#clip2)" transform="translate(-133 -100)"><g clip-path="url(#clip3)" filter="url(#fx0)" transform="translate(132 100)"><g clip-path="url(#clip4)"><path d="M7 38.5006C7 21.1033 21.1033 7 38.5006 7L164.499 7C181.897 7 196 21.1033 196 38.5006L196 164.499C196 181.897 181.897 196 164.499 196L38.5006 196C21.1033 196 7 181.897 7 164.499Z" fill="#FF0000" fill-rule="evenodd"/></g></g><g clip-path="url(#clip5)" filter="url(#fx1)" transform="translate(147 115)"><g clip-path="url(#clip6)"><path d="M50.1445-28.6172C50.1445-23.8047 49.5286-19.6009 48.2969-16.0059 47.0651-12.4108 45.2676-9.43164 42.9043-7.06836 40.541-4.70508 37.6406-2.9362 34.2031-1.76172 30.7656-0.58724 26.6693 0 21.9141 0L10.1406 0C9.48177 0 8.85872-0.222005 8.27148-0.666016 7.68424-1.11003 7.39062-1.89062 7.39062-3.00781L7.39062-52.5938C7.39062-53.7109 7.68424-54.4915 8.27148-54.9355 8.85872-55.3796 9.48177-55.6016 10.1406-55.6016L22.7305-55.6016C27.543-55.6016 31.6107-54.9785 34.9336-53.7324 38.2565-52.4863 41.0423-50.696 43.291-48.3613 45.5397-46.0267 47.2441-43.1979 48.4043-39.875 49.5644-36.5521 50.1445-32.7995 50.1445-28.6172ZM42.3672-28.3164C42.3672-31.3242 41.9948-34.1243 41.25-36.7168 40.5052-39.3092 39.3379-41.5508 37.748-43.4414 36.1582-45.332 34.1458-46.8073 31.7109-47.8672 29.276-48.9271 26.1393-49.457 22.3008-49.457L14.7812-49.457 14.7812-6.1875 22.3867-6.1875C25.9388-6.1875 28.9323-6.63151 31.3672-7.51953 33.8021-8.40755 35.8359-9.76823 37.4688-11.6016 39.1016-13.4349 40.3262-15.7337 41.1426-18.498 41.959-21.2624 42.3672-24.5352 42.3672-28.3164Z" fill="#FFFFFF" transform="translate(59.5608 115)"/></g></g><path d="M139 136.501C139 119.103 153.103 105 170.501 105L296.499 105C313.897 105 328 119.103 328 136.501L328 262.499C328 279.897 313.897 294 296.499 294L170.501 294C153.103 294 139 279.897 139 262.499Z" fill="url(#fill7)" fill-rule="evenodd"/><text fill="#FFFFFF" font-family="Calibri,Calibri_MSFontService,sans-serif" font-weight="400" font-size="88" transform="translate(206.561 228)">D</text></g></svg>