<svg width="205" height="211" xmlns="http://www.w3.org/2000/svg" xmlns:xlink="http://www.w3.org/1999/xlink" overflow="hidden"><defs><filter id="fx0" x="-10%" y="-10%" width="120%" height="120%" filterUnits="userSpaceOnUse" primitiveUnits="userSpaceOnUse"><feComponentTransfer color-interpolation-filters="sRGB"><feFuncR type="discrete" tableValues="0 0"/><feFuncG type="discrete" tableValues="0 0"/><feFuncB type="discrete" tableValues="0 0"/><feFuncA type="linear" slope="0.631373" intercept="0"/></feComponentTransfer><feGaussianBlur stdDeviation="2 2"/></filter><filter id="fx1" x="-10%" y="-10%" width="120%" height="120%" filterUnits="userSpaceOnUse" primitiveUnits="userSpaceOnUse"><feComponentTransfer color-interpolation-filters="sRGB"><feFuncR type="discrete" tableValues="0 0"/><feFuncG type="discrete" tableValues="0 0"/><feFuncB type="discrete" tableValues="0 0"/><feFuncA type="linear" slope="0.631373" intercept="0"/></feComponentTransfer><feGaussianBlur stdDeviation="2 2"/></filter><clipPath id="clip2"><rect x="387" y="113" width="205" height="211"/></clipPath><clipPath id="clip3"><rect x="-2" y="-2" width="205" height="205"/></clipPath><clipPath id="clip4"><rect x="0" y="0" width="203" height="203"/></clipPath><clipPath id="clip5"><rect x="58" y="48" width="90" height="81"/></clipPath><clipPath id="clip6"><rect x="0" y="0" width="206" height="200"/></clipPath><linearGradient x1="489.5" y1="117" x2="489.5" y2="306" gradientUnits="userSpaceOnUse" spreadMethod="reflect" id="fill7"><stop offset="0" stop-color="#454545"/><stop offset="0.5"/><stop offset="1"/></linearGradient></defs><g clip-path="url(#clip2)" transform="translate(-387 -113)"><g clip-path="url(#clip3)" filter="url(#fx0)" transform="translate(388 112)"><g clip-path="url(#clip4)"><path d="M7 38.5006C7 21.1033 21.1033 7 38.5006 7L164.499 7C181.897 7 196 21.1033 196 38.5006L196 164.499C196 181.897 181.897 196 164.499 196L38.5006 196C21.1033 196 7 181.897 7 164.499Z" fill="#FF0000" fill-rule="evenodd"/></g></g><g clip-path="url(#clip5)" filter="url(#fx1)" transform="translate(387 124)"><g clip-path="url(#clip6)"><path d="M7.43359-31.7969 39.2305-63.5938 51.1805-63.5938 23.6375-36.0508 78.8047-36.0508 78.8047-27.543 23.6375-27.543 51.1805 0 39.2305 0Z" fill="#FFFFFF" transform="translate(59.6488 120)"/></g></g><path d="M395 148.501C395 131.103 409.103 117 426.501 117L552.499 117C569.897 117 584 131.103 584 148.501L584 274.499C584 291.897 569.897 306 552.499 306L426.501 306C409.103 306 395 291.897 395 274.499Z" fill="url(#fill7)" fill-rule="evenodd"/><text fill="#FFFFFF" font-family="Wingdings,Wingdings_MSFontService,sans-serif" font-weight="400" font-size="88" transform="translate(446.649 242)"></text></g></svg>