<svg width="585" height="213" xmlns="http://www.w3.org/2000/svg" xmlns:xlink="http://www.w3.org/1999/xlink" overflow="hidden"><defs><filter id="fx0" x="-10%" y="-10%" width="120%" height="120%" filterUnits="userSpaceOnUse" primitiveUnits="userSpaceOnUse"><feComponentTransfer color-interpolation-filters="sRGB"><feFuncR type="discrete" tableValues="0 0"/><feFuncG type="discrete" tableValues="0 0"/><feFuncB type="discrete" tableValues="0 0"/><feFuncA type="linear" slope="0.631373" intercept="0"/></feComponentTransfer><feGaussianBlur stdDeviation="2 2"/></filter><filter id="fx1" x="-10%" y="-10%" width="120%" height="120%" filterUnits="userSpaceOnUse" primitiveUnits="userSpaceOnUse"><feComponentTransfer color-interpolation-filters="sRGB"><feFuncR type="discrete" tableValues="0 0"/><feFuncG type="discrete" tableValues="0 0"/><feFuncB type="discrete" tableValues="0 0"/><feFuncA type="linear" slope="0.631373" intercept="0"/></feComponentTransfer><feGaussianBlur stdDeviation="2 2"/></filter><clipPath id="clip2"><rect x="371" y="385" width="585" height="213"/></clipPath><clipPath id="clip3"><rect x="-2" y="-2" width="590" height="205"/></clipPath><clipPath id="clip4"><rect x="0" y="0" width="586" height="203"/></clipPath><clipPath id="clip5"><rect x="56" y="50" width="229" height="74"/></clipPath><clipPath id="clip6"><rect x="0" y="0" width="340" height="198"/></clipPath><linearGradient x1="663" y1="390" x2="663" y2="579" gradientUnits="userSpaceOnUse" spreadMethod="reflect" id="fill7"><stop offset="0" stop-color="#454545"/><stop offset="0.5"/><stop offset="1"/></linearGradient></defs><g clip-path="url(#clip2)" transform="translate(-371 -385)"><g clip-path="url(#clip3)" filter="url(#fx0)" transform="translate(370 385)"><g clip-path="url(#clip4)"><path d="M7 38.5007C7 21.1034 21.1033 7 38.5007 7L547.499 7C564.897 7 579 21.1034 579 38.5007L579 164.499C579 181.897 564.897 196 547.499 196L38.5007 196C21.1033 196 7 181.897 7 164.499Z" fill="#FF0000" fill-rule="evenodd"/></g></g><g clip-path="url(#clip5)" filter="url(#fx1)" transform="translate(493 400)"><g clip-path="url(#clip6)"><path d="M37.2539-15.5977C37.2539-12.9909 36.7741-10.6706 35.8145-8.63672 34.8548-6.60286 33.5228-4.87695 31.8184-3.45898 30.1139-2.04102 28.1087-0.973958 25.8027-0.257812 23.4967 0.458333 21.0117 0.816406 18.3477 0.816406 16.4857 0.816406 14.7598 0.658854 13.1699 0.34375 11.5801 0.0286458 10.1621-0.358073 8.91602-0.816406 7.66992-1.27474 6.62435-1.7474 5.7793-2.23438 4.93424-2.72135 4.347-3.13672 4.01758-3.48047 3.68815-3.82422 3.44466-4.26107 3.28711-4.79102 3.12956-5.32096 3.05078-6.02995 3.05078-6.91797 3.05078-7.54818 3.07943-8.07096 3.13672-8.48633 3.19401-8.90169 3.27995-9.23828 3.39453-9.49609 3.50911-9.75391 3.65234-9.93294 3.82422-10.0332 3.99609-10.1335 4.19661-10.1836 4.42578-10.1836 4.82682-10.1836 5.39258-9.9401 6.12305-9.45312 6.85352-8.96615 7.79167-8.4362 8.9375-7.86328 10.0833-7.29036 11.4655-6.75325 13.084-6.25195 14.7025-5.75065 16.5716-5.5 18.6914-5.5 20.2956-5.5 21.7637-5.71484 23.0957-6.14453 24.4277-6.57422 25.5736-7.18294 26.5332-7.9707 27.4928-8.75846 28.2305-9.72526 28.7461-10.8711 29.2617-12.0169 29.5195-13.3203 29.5195-14.7812 29.5195-16.3568 29.1615-17.7031 28.4453-18.8203 27.7292-19.9375 26.7839-20.9186 25.6094-21.7637 24.4349-22.6087 23.0957-23.3822 21.5918-24.084 20.0879-24.7858 18.5482-25.502 16.9727-26.2324 15.3971-26.9629 13.8646-27.7721 12.375-28.6602 10.8854-29.5482 9.55338-30.5938 8.37891-31.7969 7.20443-33 6.25195-34.4108 5.52148-36.0293 4.79102-37.6478 4.42578-39.5885 4.42578-41.8516 4.42578-44.1719 4.84831-46.2415 5.69336-48.0605 6.53841-49.8796 7.71289-51.4049 9.2168-52.6367 10.7207-53.8685 12.5111-54.8066 14.5879-55.4512 16.6647-56.0957 18.9062-56.418 21.3125-56.418 22.5443-56.418 23.7832-56.3105 25.0293-56.0957 26.2754-55.8809 27.4499-55.5944 28.5527-55.2363 29.6556-54.8783 30.6367-54.4772 31.4961-54.0332 32.3555-53.5892 32.9212-53.2311 33.1934-52.959 33.4655-52.6868 33.6445-52.472 33.7305-52.3145 33.8164-52.1569 33.888-51.9564 33.9453-51.7129 34.0026-51.4694 34.0456-51.1758 34.0742-50.832 34.1029-50.4883 34.1172-50.0443 34.1172-49.5 34.1172-48.9844 34.0957-48.526 34.0527-48.125 34.0098-47.724 33.9453-47.3874 33.8594-47.1152 33.7734-46.8431 33.6517-46.6426 33.4941-46.5137 33.3366-46.3848 33.1576-46.3203 32.957-46.3203 32.6419-46.3203 32.1478-46.5208 31.4746-46.9219 30.8014-47.3229 29.9779-47.7741 29.0039-48.2754 28.0299-48.7767 26.877-49.235 25.5449-49.6504 24.2129-50.0658 22.7161-50.2734 21.0547-50.2734 19.5078-50.2734 18.1615-50.0658 17.0156-49.6504 15.8698-49.235 14.9245-48.6836 14.1797-47.9961 13.4349-47.3086 12.8763-46.4922 12.5039-45.5469 12.1315-44.6016 11.9453-43.599 11.9453-42.5391 11.9453-40.9922 12.3034-39.6602 13.0195-38.543 13.7357-37.4258 14.6882-36.4375 15.877-35.5781 17.0658-34.7188 18.4193-33.931 19.9375-33.2148 21.4557-32.4987 23.0026-31.7754 24.5781-31.0449 26.1536-30.3145 27.7005-29.5124 29.2188-28.6387 30.737-27.765 32.0905-26.7337 33.2793-25.5449 34.4681-24.3561 35.4277-22.9525 36.1582-21.334 36.8887-19.7155 37.2539-17.8034 37.2539-15.5977ZM82.0508-39.3164C82.0508-36.5378 81.5924-34.0312 80.6758-31.7969 79.7591-29.5625 78.4486-27.6576 76.7441-26.082 75.0397-24.5065 72.9486-23.2891 70.4707-22.4297 67.9928-21.5703 65.0352-21.1406 61.5977-21.1406L55.2812-21.1406 55.2812-1.11719C55.2812-0.888021 55.2168-0.6875 55.0879-0.515625 54.959-0.34375 54.7585-0.207682 54.4863-0.107422 54.2142-0.00716146 53.8418 0.078776 53.3691 0.150391 52.8965 0.222005 52.3021 0.257812 51.5859 0.257812 50.8698 0.257812 50.2754 0.222005 49.8027 0.150391 49.3301 0.078776 48.9505-0.00716146 48.6641-0.107422 48.3776-0.207682 48.1771-0.34375 48.0625-0.515625 47.9479-0.6875 47.8906-0.888021 47.8906-1.11719L47.8906-52.4219C47.8906-53.5677 48.1914-54.3841 48.793-54.8711 49.3945-55.3581 50.0677-55.6016 50.8125-55.6016L62.7148-55.6016C63.918-55.6016 65.071-55.5514 66.1738-55.4512 67.2767-55.3509 68.5801-55.1361 70.084-54.8066 71.5879-54.4772 73.1204-53.8613 74.6816-52.959 76.2428-52.0566 77.5677-50.9466 78.6562-49.6289 79.7448-48.3112 80.5827-46.7858 81.1699-45.0527 81.7572-43.3197 82.0508-41.4076 82.0508-39.3164ZM74.2734-38.7148C74.2734-40.9779 73.8509-42.8685 73.0059-44.3867 72.1608-45.9049 71.1152-47.0365 69.8691-47.7812 68.623-48.526 67.334-48.9987 66.002-49.1992 64.6699-49.3997 63.3737-49.5 62.1133-49.5L55.2812-49.5 55.2812-27.1992 61.9414-27.1992C64.1758-27.1992 66.0306-27.4857 67.5059-28.0586 68.9811-28.6315 70.22-29.4264 71.2227-30.4434 72.2253-31.4603 72.9844-32.6777 73.5-34.0957 74.0156-35.5137 74.2734-37.0534 74.2734-38.7148ZM128.541-2.62109C128.77-1.99089 128.892-1.48242 128.906-1.0957 128.92-0.708984 128.813-0.415365 128.584-0.214844 128.354-0.0143229 127.975 0.114583 127.445 0.171875 126.915 0.229167 126.206 0.257812 125.318 0.257812 124.43 0.257812 123.721 0.236328 123.191 0.193359 122.661 0.150391 122.26 0.078776 121.988-0.0214844 121.716-0.121745 121.515-0.257812 121.386-0.429688 121.257-0.601562 121.136-0.816406 121.021-1.07422L116.252-14.6094 93.1344-14.6094 88.5797-1.24609C88.4938-0.988281 88.3792-0.766276 88.236-0.580078 88.0928-0.39388 87.8851-0.236328 87.6129-0.107422 87.3408 0.0214844 86.9541 0.114583 86.4528 0.171875 85.9515 0.229167 85.2998 0.257812 84.4977 0.257812 83.667 0.257812 82.9866 0.222005 82.4567 0.150391 81.9267 0.078776 81.5544-0.0572917 81.3395-0.257812 81.1247-0.458333 81.0244-0.751953 81.0387-1.13867 81.053-1.52539 81.1748-2.03385 81.404-2.66406L100.052-54.3125C100.167-54.6276 100.317-54.8854 100.504-55.0859 100.69-55.2865 100.962-55.444 101.32-55.5586 101.678-55.6732 102.136-55.752 102.695-55.7949 103.254-55.8379 103.963-55.8594 104.822-55.8594 105.739-55.8594 106.498-55.8379 107.099-55.7949 107.701-55.752 108.188-55.6732 108.56-55.5586 108.933-55.444 109.219-55.2793 109.42-55.0645 109.62-54.8496 109.778-54.5846 109.892-54.2695ZM104.607-48.2109 104.564-48.2109 94.9821-20.4961 114.318-20.4961ZM174.382-7.86328C174.382-7.40495 174.368-7.00391 174.339-6.66016 174.311-6.31641 174.261-6.01562 174.189-5.75781 174.117-5.5 174.024-5.27083 173.91-5.07031 173.795-4.86979 173.595-4.6263 173.308-4.33984 173.022-4.05339 172.42-3.61654 171.503-3.0293 170.587-2.44206 169.448-1.86914 168.087-1.31055 166.727-0.751953 165.165-0.279297 163.404 0.107422 161.642 0.494141 159.716 0.6875 157.624 0.6875 154.015 0.6875 150.757 0.0859375 147.849-1.11719 144.942-2.32031 142.464-4.09635 140.415-6.44531 138.367-8.79427 136.792-11.6947 135.689-15.1465 134.586-18.5983 134.035-22.5729 134.035-27.0703 134.035-31.6823 134.629-35.793 135.818-39.4023 137.007-43.0117 138.675-46.0697 140.824-48.5762 142.972-51.0827 145.543-52.9948 148.537-54.3125 151.53-55.6302 154.846-56.2891 158.484-56.2891 160.088-56.2891 161.649-56.1387 163.167-55.8379 164.686-55.5371 166.089-55.1576 167.378-54.6992 168.667-54.2409 169.813-53.7109 170.816-53.1094 171.818-52.5078 172.513-52.0137 172.9-51.627 173.287-51.2402 173.537-50.9466 173.652-50.7461 173.766-50.5456 173.859-50.3092 173.931-50.0371 174.003-49.765 174.06-49.4427 174.103-49.0703 174.146-48.6979 174.167-48.2539 174.167-47.7383 174.167-47.1654 174.139-46.6784 174.081-46.2773 174.024-45.8763 173.937-45.5397 173.822-45.2676 173.707-44.9954 173.57-44.7949 173.411-44.666 173.253-44.5371 173.059-44.4727 172.828-44.4727 172.425-44.4727 171.864-44.752 171.144-45.3105 170.423-45.8691 169.494-46.485 168.357-47.1582 167.219-47.8314 165.837-48.4473 164.21-49.0059 162.583-49.5645 160.632-49.8438 158.357-49.8438 155.88-49.8438 153.626-49.3496 151.596-48.3613 149.566-47.373 147.831-45.9193 146.391-44 144.951-42.0807 143.835-39.7389 143.043-36.9746 142.251-34.2103 141.855-31.0521 141.855-27.5 141.855-23.9766 142.237-20.8613 143-18.1543 143.763-15.4473 144.857-13.1842 146.283-11.3652 147.708-9.54622 149.458-8.17122 151.531-7.24023 153.605-6.30924 155.952-5.84375 158.572-5.84375 160.79-5.84375 162.726-6.11589 164.382-6.66016 166.038-7.20443 167.449-7.81315 168.615-8.48633 169.782-9.1595 170.739-9.76823 171.488-10.3125 172.237-10.8568 172.827-11.1289 173.259-11.1289 173.461-11.1289 173.634-11.0859 173.778-11 173.922-10.9141 174.037-10.7493 174.123-10.5059 174.21-10.2624 174.274-9.92578 174.318-9.49609 174.361-9.06641 174.382-8.52213 174.382-7.86328ZM215.195-3.05078C215.195-2.53516 215.166-2.08398 215.109-1.69727 215.052-1.31055 214.951-0.988281 214.808-0.730469 214.665-0.472656 214.5-0.286458 214.314-0.171875 214.128-0.0572917 213.92 0 213.691 0L187.007 0C186.348 0 185.725-0.222005 185.138-0.666016 184.551-1.11003 184.257-1.89062 184.257-3.00781L184.257-52.5938C184.257-53.7109 184.551-54.4915 185.138-54.9355 185.725-55.3796 186.348-55.6016 187.007-55.6016L213.39-55.6016C213.619-55.6016 213.827-55.5443 214.013-55.4297 214.199-55.3151 214.35-55.1289 214.464-54.8711 214.579-54.6133 214.672-54.291 214.744-53.9043 214.815-53.5176 214.851-53.0378 214.851-52.4648 214.851-51.9492 214.815-51.498 214.744-51.1113 214.672-50.7246 214.579-50.4095 214.464-50.166 214.35-49.9225 214.199-49.7435 214.013-49.6289 213.827-49.5143 213.619-49.457 213.39-49.457L191.648-49.457 191.648-32.0117 210.296-32.0117C210.526-32.0117 210.733-31.9473 210.919-31.8184 211.106-31.6895 211.263-31.5104 211.392-31.2812 211.521-31.0521 211.614-30.737 211.671-30.3359 211.729-29.9349 211.757-29.4622 211.757-28.918 211.757-28.4023 211.729-27.9583 211.671-27.5859 211.614-27.2135 211.521-26.9128 211.392-26.6836 211.263-26.4544 211.106-26.2897 210.919-26.1895 210.733-26.0892 210.526-26.0391 210.296-26.0391L191.648-26.0391 191.648-6.14453 213.691-6.14453C213.92-6.14453 214.128-6.08724 214.314-5.97266 214.5-5.85807 214.665-5.67904 214.808-5.43555 214.951-5.19206 215.052-4.87695 215.109-4.49023 215.166-4.10352 215.195-3.6237 215.195-3.05078Z" fill="#FFFFFF" transform="translate(60.406 115)"/></g></g><path d="M377 421.501C377 404.103 391.103 390 408.501 390L917.499 390C934.897 390 949 404.103 949 421.501L949 547.499C949 564.897 934.897 579 917.499 579L408.501 579C391.103 579 377 564.897 377 547.499Z" fill="url(#fill7)" fill-rule="evenodd"/><text fill="#FFFFFF" font-family="Calibri,Calibri_MSFontService,sans-serif" font-weight="400" font-size="88" transform="translate(553.406 513)">SPACE</text></g></svg>